<svg
   xmlns="http://www.w3.org/2000/svg"
   width="775.605"
   height="775.542"
   version="1"
   viewBox="0 0 581.704 581.657"
>
   <path
      fill="#fff"
      stroke="none"
      d="M26.801 290.828L290.83 554.857l264.073-264.073C466.85 202.832 378.972 114.706 290.873 26.8z"
   ></path>
   <path
      fill="red"
      stroke="none"
      d="M149.16 149.169L7.5 290.829l141.669 141.668 141.66 141.66 141.687-141.688L574.204 290.78l-141.64-141.64C354.665 71.243 290.903 7.5 290.875 7.5c-.029 0-63.8 63.752-141.717 141.669zm260.962 22.413L529.32 290.78 410.065 410.037 290.82 529.283l-119.19-119.256L52.44 290.772l119.2-119.2c65.557-65.557 119.208-119.19 119.237-119.19.028 0 53.689 53.643 119.246 119.2z"
   ></path>
   <path
      fill="#000"
      stroke="none"
      strokeWidth="0.8"
      d="M316.3 138.407c-.07.009-.118.083-.175.225-.047.141-9.07 25.86-20.05 57.175-10.98 31.314-19.987 56.977-20.025 57.025-.113.113-.91-.174-.9-.325.009-.104 23.464-73.083 23.7-73.725.028-.076-.673-.55-2.1-1.4-2.126-1.267-2.375-1.402-2.375-1.25 0 .132-19.537 76.287-19.575 76.325-.019.028-.551-.096-1.175-.275-1.493-.426-4.03-.943-5.675-1.15-1.843-.227-6.037-.237-7.7 0-7.767 1.086-14.06 4.299-19.55 9.95-3.855 3.968-6.925 9.115-8.55 14.35-.198.623-.387 1.162-.425 1.2-.038.037-3.022-2.145-6.65-4.875-3.628-2.731-6.631-4.954-6.65-4.925-.019.018.346.767.8 1.675l.825 1.65 5.7 3.825c5.509 3.694 5.672 3.829 5.625 4.075-.047.236.138.464 1.725 2.175a302.76 302.76 0 002.375 2.55l.625.625 1.675-.1 1.675-.1 3.15 2.1c1.73 1.143 3.036 1.982 2.875 1.85-.151-.133-1.405-1.096-2.775-2.125-1.36-1.021-2.416-1.866-2.35-1.875a614.69 614.69 0 014.85-.275l4.725-.25 6.8 3.425c3.76 1.87 6.872 3.4 6.9 3.4.028 0 1.737-2.037 3.825-4.55 2.088-2.504 3.859-4.625 3.925-4.7.104-.123-.17-.838-1.625-4.4-.954-2.334-1.719-4.257-1.7-4.275.019-.01 2.4.238 5.3.55 2.9.311 5.287.553 5.325.525.028-.038.41-1.48.825-3.2l.775-3.15 2.35-.025c1.295-.01 2.712.012 3.175.05l.85.075-8.05 8.8c-4.441 4.828-8.146 8.892-8.25 9.025-.36.425 2.841-2.782 10.325-10.35l7.375-7.475 2.75-.05 2.725-.05-.475-.7a30.703 30.703 0 00-1.15-1.5c-.36-.435-.634-.813-.625-.85.019-.038 1.047-1.11 2.275-2.375l2.225-2.275.25.525c.132.302.225.577.225.625 0 .15.124.104 3.875-1.625 1.937-.889 3.562-1.573 3.6-1.525.038.037.394 1.248.8 2.675.397 1.426.762 2.637.8 2.675.066.075 11.494-9.154 11.825-9.55.076-.104 1.496-2.689 3.15-5.75a595.807 595.807 0 013.25-5.975c.132-.227.191-.42.125-.4-.057.018-2.41 1.966-5.225 4.3l-5.125 4.225-3.675.1c-2.032.047-3.84.068-4 .05-.274-.029 1.757-2.096 34.375-35.025 19.059-19.239 34.675-35.013 34.675-35.05 0-.038-.904-.964-2-2.05-1.87-1.871-1.999-1.961-2.15-1.8-.085.085-15.94 17.344-35.225 38.35l-35.05 38.2-2.775 1.95c-1.521 1.067-2.818 1.993-2.875 2.05-.066.066.008.308.225.8.265.623.288.733.175.875-.104.132-3.75 4.153-4.45 4.9-.17.18-.178.168-1-.625-1.597-1.578-3.107-2.794-4.95-4.05l-.9-.625 17.375-29.85c13.701-23.538 17.344-29.865 17.25-29.95-.057-.067-.955-.627-1.975-1.25l-1.875-1.15-.325.575c-.17.32-7.212 14.231-15.65 30.9-8.703 17.216-15.374 30.3-15.45 30.3-.094 0-.082-.113.05-.5.104-.265 9.322-25.972 20.5-57.125 11.188-31.154 20.319-56.669 20.3-56.725-.038-.085-6.832-3.26-7.55-3.525-.028-.01-.052-.003-.075 0zm-34.475 43.625l-.975 2.425-.95 2.45-1.85-.725c-1.03-.407-1.897-.713-1.925-.675-.028.037-.465 2.083-.975 4.55-.5 2.466-.922 4.564-.95 4.65-.028.113.388.34 1.9 1.05 1.087.51 2.003.962 2.05 1 .038.037.502 1.706 1.05 3.7.539 1.984 1.006 3.63 1.025 3.65.019.018.79-1.08 1.725-2.45 1.776-2.599 1.772-2.59 7.375-8.675l.3-.325-1.625-5.25-1.625-5.25-.7-.05c-.387-.038-1.406-.066-2.275-.075zm128.85 23.325c-.038 0-.097.111-.125.225-.293.973-3.287 10.237-3.325 10.275-.019.028-2.043.136-4.5.25l-4.475.2-1.275.95c-.7.538-1.281.99-1.3 1-.028.028-1.219 7.646-1.2 7.675.038.028 6.972 4 7 4 .019 0 1.279-1.34 2.8-2.975 1.53-1.635 2.797-2.985 2.825-2.975.028 0 2.532 1.705 5.575 3.775l5.525 3.75.025-1.375c.009-.756.006-3.84-.05-6.825l-.1-5.425-3.675-6.275c-2.022-3.44-3.687-6.25-3.725-6.25zm-94.025 3.825l-.175.225c-.095.122-.66.94-1.275 1.8l-1.1 1.55-.7 3.5c-.378 1.927-.7 3.596-.7 3.7.009.132.803.879 2.475 2.325 1.36 1.171 2.493 2.125 2.55 2.125.047 0 .902-.97 1.875-2.15l1.775-2.175.4-1.95c.217-1.068.443-2.189.5-2.5l.1-.575-1.075-2.9c-.586-1.588-1.097-2.913-1.125-2.95-.038-.038-.437.358-.9.85l-.825.9-.9-.9zm57.775 5.175c-.047 0-20.879 14.665-46.325 32.6-25.446 17.943-46.269 32.63-46.25 32.65.009.018 20.875-12.892 46.35-28.7l46.3-28.75v-3.925c0-2.145-.037-3.885-.075-3.875zm-9.15 25.5l-1.875 2.1-1.9 2.075-.9 2.425c-.5 1.332-.91 2.43-.9 2.45.038.037 16.512 2.012 16.55 1.975.019-.01-2.451-2.511-5.475-5.525zm75.975 1.45c-.047-.01-36.743 9.477-81.55 21.1-44.807 11.622-81.469 21.156-81.45 21.175.028.028 165.234-37.394 165.3-37.45.057-.038-2.224-4.807-2.3-4.825zm-96 11.2c-.047.009-12.258 5.76-27.15 12.8-14.892 7.039-27.15 12.843-27.225 12.9-.104.075-.07.081.1.025.33-.114 54.74-21.107 54.75-21.125.009 0-.062-1.034-.175-2.3-.113-1.39-.234-2.3-.3-2.3zm118.05 5.675c-.123.009-40.384 6.84-89.5 15.175-49.106 8.324-89.418 15.15-89.55 15.15-.16.009-.572-.274-1.3-.85l-1.1-.875-.05 3.625-.05 3.625-2.825 1.925c-1.56 1.048-2.884 1.89-2.95 1.9-.066 0-1.261-.799-2.65-1.8-3.685-2.665-3.74-2.656-.225.075 1.323 1.03 2.462 1.887 2.5 1.925.094.085-4.443 3.147-4.575 3.1-.066-.02-11.216-9.52-13.975-11.9l-.625-.55-5.175 4.475c-2.844 2.466-5.212 4.5-5.25 4.5-.047 0-2.976-.765-6.5-1.7l-6.4-1.7 1.8.05c.992.028 2.49.046 3.35.075 1.483.037-2.745-.28-7.8-.6-.935-.067-6.006-.41-11.25-.75l-9.55-.625-.025-.275c-.057-.322-.019-.309-.85-.025-.595.198-.682.188-2.525.075a96.58 96.58 0 01-2.4-.15l-.525-.075-.45-.825-.45-.8-3.225-.175c-1.776-.095-3.46-.15-3.725-.15H195l-.425.675-.4.7-.475-.05c-.265-.01-10.154-.641-21.975-1.425-11.82-.775-21.652-1.41-21.85-1.4l-.35.025 1.1 1.175c.954 1.039 1.132 1.196 1.425 1.225.189.018 9.54.396 20.775.85 11.235.453 20.472.846 20.5.875.028.028-.424.82-1 1.775-.567.944-1.022 1.777-.975 1.825.038.037 1.41 1.012 3.025 2.175l2.925 2.125 3.225.525c1.767.302 3.284.528 3.35.5.066-.02.552-.762 1.1-1.65l1-1.625h4.1v-.35c0-.199-.071-1.323-.175-2.475-.104-1.163-.178-2.122-.15-2.15.057-.057 20.405.724 20.925.8.246.037.3.067.3.275 0 .35.497 2.546.875 3.85.321 1.096.323 1.102.125 1.15-.104.018-25.143 2.888-55.625 6.375-30.483 3.496-55.416 6.375-55.425 6.375-.028.018-.228 2.446-.2 2.475.019.009 25.048-3.371 55.625-7.5 30.577-4.13 55.665-7.5 55.75-7.5.104 0 .233.203.375.6.123.33.402 1.005.6 1.525.198.51.344.94.325.95-.019.009-18.733 4.154-41.6 9.2-22.867 5.045-41.646 9.227-41.75 9.275-.16.066-.258.31-.475 1.425-.151.737-.228 1.371-.2 1.4.047.037 83.822-20.6 84.2-20.75.057-.02.24.244.4.575.208.415.25.621.175.65-.066.018-6.377 1.724-14.05 3.775l-13.975 3.7-.175 1.425c-.104.784-.184 1.44-.175 1.45.009.009 6.528-2.124 14.475-4.75 14.495-4.782 14.59-4.813 14.6-4.425 0 .056-10.18 5.597-22.625 12.325l-22.65 12.225.075.9c.038.49.062 1.051.1 1.25l.075.35 22.475-13.225c12.369-7.276 22.565-13.288 22.65-13.325.123-.076.301.154.925 1.175a38.057 38.057 0 002.65 3.775c.378.49.401.561.25.675-.085.056-12 9.568-26.475 21.125L186 353.957l1.85 1.825c1.03 1.001 1.95 1.852 2.025 1.9.113.066 3.63-3.142 15.725-14.225 8.58-7.871 15.606-14.285 15.625-14.275.019.018-.114.303-.275.625-.16.311-.275.602-.275.65 0 .066 2.595 3 3.2 3.625.16.16.245.137 2.05-.675l1.875-.85.95.95.95.925 1.875-1.125 1.9-1.15.725-2.425c.406-1.342.716-2.5.725-2.575 0-.085-.714-.592-1.725-1.225l-1.7-1.075-2.75-.05-2.725-.05 6.725-6.175c3.695-3.383 6.731-6.15 6.75-6.15.009 0 .768.727 1.675 1.625.907.897 2.08 1.984 2.6 2.4 6.302 5.045 13.465 7.492 21.175 7.275 6.057-.17 11.444-1.88 16.575-5.225 2.117-1.38 3.447-2.46 5.375-4.35l1.2-1.15 17.975 14.475c9.903 7.974 18.006 14.484 18.025 14.475.009-.02-.46-1.14-1.075-2.5l-1.1-2.475-16.7-12.25-16.7-12.225.325-.4c.18-.208.663-.815 1.05-1.325.397-.501.762-.91.8-.9.047.018 10.126 7.884 22.4 17.475 12.274 9.59 22.467 17.548 22.675 17.7l.375.275 1.075-1.075c.595-.596 1.084-1.113 1.075-1.15-.019-.029-10.534-7.662-23.375-16.95-12.832-9.289-23.415-16.94-23.5-17.025-.151-.142-.123-.216.425-1.075.369-.577.624-.904.7-.875.066.028 9.606 5.844 21.2 12.95 11.584 7.096 21.097 12.868 21.125 12.85.019-.029-.482-1.106-1.125-2.4l-1.175-2.35-19.85-10.9-19.85-10.9.675-1.325c.378-.728.845-1.654 1.025-2.05l.325-.725 12.3 3.175c6.765 1.748 12.312 3.212 12.35 3.25.076.075-.868 1.4-1 1.4-.047 0-1.72-.316-3.675-.675-1.965-.369-3.624-.65-3.7-.65-.104 0-.52.662-1.2 1.9l-1.05 1.925 2.475 1.825a983.182 983.182 0 003.825 2.825l1.35 1 10.05 1.725c5.518.944 10.056 1.693 10.075 1.675.028-.029.206-2.587.3-4.25l.025-.575-1.65-1.9-1.65-1.875-2.05-.875c-1.134-.482-2.034-.891-2.025-.9.009-.01 6.432 1.627 14.275 3.65 7.843 2.022 14.324 3.675 14.4 3.675.066 0 .1-.028.1-.075 0-.038.285-1.97.625-4.275.34-2.306.61-4.182.6-4.2-.019-.01-14.459-2.06-32.1-4.525-17.632-2.467-32.081-4.507-32.1-4.525-.019-.02.17-.676.425-1.45.265-.775.475-1.465.475-1.55 0-.104-.69-.383-2.475-1.025l-2.475-.875-.5-.875c-.274-.463-.478-.872-.45-.9.019-.029 13.892.621 30.825 1.425l30.775 1.45.25.25.25.275 5.575.375 5.55.375.325-.35.325-.35 39.35 1.875c21.648 1.02 39.366 1.834 39.375 1.825.019-.02-.727-.586-1.625-1.275l-1.625-1.275-37.075-1.15c-20.39-.652-37.124-1.191-37.2-1.2-.076-.02 1.04-1.364 2.675-3.225 1.55-1.758 2.794-3.216 2.775-3.225-.009-.02-4.467-2-9.9-4.4-5.433-2.4-9.887-4.397-9.925-4.425-.038-.02-1.27 1.11-2.725 2.5l-2.65 2.525-3.75 1.25c-2.05.69-3.756 1.271-3.775 1.3-.028.018.343 1.548.825 3.4.482 1.852.828 3.412.8 3.45-.038.028-11.172-.316-24.75-.75-13.569-.426-24.712-.76-24.75-.75-.038 0-.254-.344-.5-.75-.425-.7-.524-.803-3.075-2.825l-2.65-2.075.5-.075c.274-.038 40.62-5.514 89.65-12.175l89.15-12.1.05-3.05v-3.05zm-251.5 14.7c-.003.02.01.055.025.1.038.103.205.565.375 1l.325.775 14.775 7.125c8.117 3.911 14.781 7.084 14.8 7.075.009-.02-6.58-3.545-14.65-7.825-8.06-4.28-14.891-7.9-15.175-8.05-.347-.199-.467-.261-.475-.2zm-12.975 8.65c-.028 0-.66.538-1.425 1.2-.765.661-1.363 1.221-1.325 1.25.095.075 44.043 6.931 44.1 6.875.038-.029-41.19-9.335-41.35-9.325zm41.65 9.35c-.104-.01-.163.021-.125.05.028.028.109.028.175 0 .076-.029.054-.05-.05-.05zm-36.55 2.15l.65.05c.35.037.774.065.925.075.236 0 .207.045-.275.225-.983.377-.936.377-1.125 0zm145.3 1.25c.057 0 .509.42 1 .95l.875.975-1.6-.075c-.888-.038-2.628-.088-3.875-.125-1.247-.029-2.2-.097-2.125-.125.246-.085 5.63-1.591 5.725-1.6zm-109.05.2c-.022.009-.019.035 0 .05.028.028.109.028.175 0 .076-.029.029-.05-.075-.05-.052-.005-.077-.01-.1 0zm-72.025 2.85c-.038-.01-1.363.959-2.95 2.15l-2.875 2.125-.025 1.15c-.028 1.124-.033 1.162.175 1.2.35.075 15.768 1.478 15.9 1.45.095-.029-10.036-8.028-10.225-8.075zm19.175 18.425c0 .085 5.78 5.65 5.875 5.65.057 0 1.02-.381 2.125-.825l2-.8v-3.5h-.25c-.33 0-8.429-.444-9.175-.5-.33-.029-.575-.044-.575-.025zm-21.225 14.7c-.028 0-.081.068-.1.125-.028.066-.477 1.58-1.025 3.375l-1 3.275.3.425c1.635 2.277 5.693 7.806 5.75 7.825.038.009.227-.443.425-1 .198-.567.613-1.731.925-2.6l.55-1.575.35-.05a32.087 32.087 0 011.8-.125l1.425-.05 1.125-1.225 1.125-1.2.6-1.825c.321-.993.544-1.807.525-1.825-.057-.057-5.321-2.025-5.425-2.025-.057 0-.44.436-.875.975-.435.548-.859.968-.925.95-.057-.02-1.316-.79-2.8-1.725-1.483-.945-2.722-1.725-2.75-1.725z"
   ></path>
</svg>