<svg
   xmlns="http://www.w3.org/2000/svg"
   width="775.605"
   height="775.542"
   version="1"
   viewBox="0 0 581.704 581.657"
>
   <g stroke="none" transform="translate(1.475 1.082)">
      <path
         fill="#fff"
         d="M25.301 289.672L289.33 553.7l264.073-264.072c-88.053-87.952-175.931-176.079-264.03-263.985z"
      ></path>
      <path
         fill="red"
         d="M147.66 148.012L6 289.672 147.669 431.34 289.329 573l141.687-141.688 141.688-141.688-141.64-141.64C353.165 70.086 289.403 6.344 289.375 6.344c-.029 0-63.8 63.752-141.717 141.668zm260.962 22.413l119.199 119.2L408.575 408.87 289.319 528.127 170.129 408.87 50.94 289.615l119.2-119.2C235.696 104.86 289.347 51.227 289.376 51.227c.028 0 53.689 53.642 119.246 119.2z"
      ></path>
      <path
         fill="#000"
         d="M361.906 151.719c-21.976 41.974 4.801 65.668-24.719 127.5-15.662-12.514-6.582-59.279-37.687-60.063 4.787 14.361 1.204 19.94.406 25.125-3.094 20.112-10.274 38.086 3.688 64.813-21.448-10.42-21.804-29.54-39.938-41.531 3.59 20.344-5.055 61.598 19.031 101.125-21.463-2.112-28.581-10.363-51.812-32.625 24.245 125.595 42.282 129.123 131.188 136.25-6.7-.786-51.495-7.94-67.72-59.563-.92-12.783-1.426 11.233 41.657 12.031-27.28-43.203-19.848-35.024-16.656-60.156 11.292 17.2 1.4 18.704 33.312 31.469-10.118-32.147 15.616-54.144 10.031-90.844 7.052 16.118 32.135 13.58 30.938 90.969 20.768-23.17 23.246-7.133 33.219-33.063.577 14.436 6.913 32.41-21.313 62 7.18 1.995 19.203 3.54 38.75-9.625-19.032 21.57-1.83 22.079-49.969 57.375 60.635.798 100.46-37.371 99.032-121.25-1.596 7.18-3.383 21.518-36.094 25.906 20.49-20.36 31.168-60.897 14.813-94.406-5.759 5.356-14.71 30.257-36.25 37.438 10.926-17.926 8.468-41.125 8.468-41.125s2.788-31.333-15.719-55.531c-5.185 37.896-4.752 56.953-28.687 62.937 3.852-22.366 4.561-32.782-7.406-58.313-12.5-26.665-26.973-52.908-30.563-76.843zm-100.125 342.25v21.969H475.22l-.031-10.97-.032-10.937L368.5 494z"
         transform="scale(.8)"
      ></path>
   </g>
</svg>