<svg
   xmlns="http://www.w3.org/2000/svg"
   width="775.605"
   height="775.542"
   version="1"
   viewBox="0 0 581.704 581.657"
>
   <g stroke="none" transform="translate(1.165 -1.045)">
      <path
         fill="#fff"
         d="M25.301 289.672L289.33 553.7l264.073-264.072c-88.053-87.952-175.931-176.079-264.03-263.985z"
      ></path>
      <path
         fill="red"
         d="M6 289.672L289.328 573l283.376-283.376L289.376 6.344zm521.821-.048L289.328 528.108 50.948 289.606l238.428-238.38z"
      ></path>
      <path
         fill="#000"
         d="M289.175 142.825c-.873.009-1.585.031-1.925.05-12.36.85-23.29 5.218-30.15 12.05-2.183 2.173-3.566 4.059-4.775 6.525-.85 1.73-1.281 3.03-1.65 4.75-.236 1.124-.275 1.37-.275 3.525 0 2.088.023 2.437.25 3.675.246 1.38 19.501 131.43 19.775 133.575.189 1.493.702 3.461 1.25 4.85 2.863 7.228 9.185 12.288 16.725 13.375 1.417.208 4.508.208 5.925 0 9.326-1.342 16.756-8.886 17.975-18.25.34-2.617 19.53-132.365 19.775-133.65.217-1.228.225-1.578.225-3.525 0-2.277-.065-3.094-.5-4.7-.737-2.702-2.197-5.506-4.125-7.925-1.53-1.928-4.031-4.2-6.45-5.9-5.443-3.817-13.012-6.694-20.6-7.8-3.402-.491-4.62-.587-8.55-.625-.987-.009-2.027-.009-2.9 0zm2.1 201.125c-.497-.002-.97.006-1.425.025-7.503.321-14.61 3.516-20.175 9.1-1.682 1.682-2.752 2.966-4.075 4.95-3.07 4.62-4.703 9.106-5.525 15.125-.16 1.21-.17 6.683 0 8.025.813 6.614 3.234 12.489 7.25 17.525.973 1.228 2.95 3.27 4.15 4.3 3.628 3.109 8.006 5.429 12.4 6.525 2.873.718 4.366.9 7.475.9 3.061 0 4.613-.195 7.325-.875 7.39-1.843 14.037-6.601 18.45-13.225 3.25-4.895 5.124-10.315 5.625-16.325.132-1.616.048-5.708-.15-7.125-.557-4.11-1.553-7.451-3.225-10.9-4.715-9.685-13.705-16.392-23.9-17.8-1.113-.149-2.71-.221-4.2-.225z"
      ></path>
   </g>
</svg>